HIERARCHY
ROOT Hips
{
	OFFSET -341.196167 -577.024780 88.986252
	CHANNELS 6 Xposition Yposition Zposition Zrotation Yrotation Xrotation
	JOINT Spine
	{
		OFFSET 0.000000 2.080078 8.814247
		CHANNELS 6 Xposition Yposition Zposition Zrotation Yrotation Xrotation
		JOINT Spine1
		{
			OFFSET 0.000000 0.000000 8.844139
			CHANNELS 6 Xposition Yposition Zposition Zrotation Yrotation Xrotation
			JOINT Spine2
			{
				OFFSET 0.000000 0.000000 11.682266
				CHANNELS 6 Xposition Yposition Zposition Zrotation Yrotation Xrotation
				JOINT Spine3
				{
					OFFSET 0.000000 0.000000 11.746704
					CHANNELS 6 Xposition Yposition Zposition Zrotation Yrotation Xrotation
					JOINT Neck
					{
						OFFSET 0.000000 0.000000 17.658264
						CHANNELS 6 Xposition Yposition Zposition Zrotation Yrotation Xrotation
						JOINT Neck1
						{
							OFFSET 0.000000 0.000000 5.101517
							CHANNELS 6 Xposition Yposition Zposition Zrotation Yrotation Xrotation
							JOINT Head
							{
								OFFSET 0.000000 0.000000 5.101517
								CHANNELS 6 Xposition Yposition Zposition Zrotation Yrotation Xrotation
								JOINT HeadEnd
								{
									OFFSET 0.000000 0.000000 11.655090
									CHANNELS 6 Xposition Yposition Zposition Zrotation Yrotation Xrotation
									End Site
									{
										OFFSET 0.000000 0.000000 0.100006
									}
								}
							}
						}
					}
					JOINT RightShoulder
					{
						OFFSET -2.625397 0.000000 11.175217
						CHANNELS 6 Xposition Yposition Zposition Zrotation Yrotation Xrotation
						JOINT RightArm
						{
							OFFSET 0.000000 0.000000 10.434723
							CHANNELS 6 Xposition Yposition Zposition Zrotation Yrotation Xrotation
							JOINT RightForeArm
							{
								OFFSET 0.000000 0.000000 29.628418
								CHANNELS 6 Xposition Yposition Zposition Zrotation Yrotation Xrotation
								JOINT RightHand
								{
									OFFSET 0.000000 0.000000 22.857605
									CHANNELS 6 Xposition Yposition Zposition Zrotation Yrotation Xrotation
									JOINT RightHandThumb1
									{
										OFFSET -2.867310 -2.944275 3.959564
										CHANNELS 6 Xposition Yposition Zposition Zrotation Yrotation Xrotation
										JOINT RightHandThumb2
										{
											OFFSET 0.000000 0.000000 3.350403
											CHANNELS 6 Xposition Yposition Zposition Zrotation Yrotation Xrotation
											JOINT RightHandThumb3
											{
												OFFSET 0.000000 0.000000 3.756516
												CHANNELS 6 Xposition Yposition Zposition Zrotation Yrotation Xrotation
												JOINT RightHandThumb4
												{
													OFFSET 0.000000 0.000000 3.147339
													CHANNELS 6 Xposition Yposition Zposition Zrotation Yrotation Xrotation
													End Site
													{
														OFFSET 0.000000 0.000000 0.100006
													}
												}
											}
										}
									}
									JOINT RightHandIndex1
									{
										OFFSET -0.086761 -2.345276 10.030899
										CHANNELS 6 Xposition Yposition Zposition Zrotation Yrotation Xrotation
										JOINT RightHandIndex2
										{
											OFFSET 0.000000 0.000000 4.061096
											CHANNELS 6 Xposition Yposition Zposition Zrotation Yrotation Xrotation
											JOINT RightHandIndex3
											{
												OFFSET 0.000000 0.000000 3.248871
												CHANNELS 6 Xposition Yposition Zposition Zrotation Yrotation Xrotation
												JOINT RightHandIndex4
												{
													OFFSET 0.000000 0.000000 2.639709
													CHANNELS 6 Xposition Yposition Zposition Zrotation Yrotation Xrotation
													End Site
													{
														OFFSET 0.000000 0.000000 0.100006
													}
												}
											}
										}
									}
									JOINT RightHandMiddle1
									{
										OFFSET 0.104095 -0.006775 9.502945
										CHANNELS 6 Xposition Yposition Zposition Zrotation Yrotation Xrotation
										JOINT RightHandMiddle2
										{
											OFFSET 0.000000 0.000000 4.568726
											CHANNELS 6 Xposition Yposition Zposition Zrotation Yrotation Xrotation
											JOINT RightHandMiddle3
											{
												OFFSET 0.000000 0.000000 3.654984
												CHANNELS 6 Xposition Yposition Zposition Zrotation Yrotation Xrotation
												JOINT RightHandMiddle4
												{
													OFFSET 0.000000 0.000000 2.741241
													CHANNELS 6 Xposition Yposition Zposition Zrotation Yrotation Xrotation
													End Site
													{
														OFFSET 0.000000 0.000000 0.100006
													}
												}
											}
										}
									}
									JOINT RightHandRing1
									{
										OFFSET 0.086761 2.267456 8.921707
										CHANNELS 6 Xposition Yposition Zposition Zrotation Yrotation Xrotation
										JOINT RightHandRing2
										{
											OFFSET 0.000000 0.000000 4.061096
											CHANNELS 6 Xposition Yposition Zposition Zrotation Yrotation Xrotation
											JOINT RightHandRing3
											{
												OFFSET 0.000000 0.000000 3.654984
												CHANNELS 6 Xposition Yposition Zposition Zrotation Yrotation Xrotation
												JOINT RightHandRing4
												{
													OFFSET 0.000000 0.000000 2.741241
													CHANNELS 6 Xposition Yposition Zposition Zrotation Yrotation Xrotation
													End Site
													{
														OFFSET 0.000000 0.000000 0.100006
													}
												}
											}
										}
									}
									JOINT RightHandPinky1
									{
										OFFSET -0.173492 4.467224 7.976990
										CHANNELS 6 Xposition Yposition Zposition Zrotation Yrotation Xrotation
										JOINT RightHandPinky2
										{
											OFFSET 0.000000 0.000000 3.350403
											CHANNELS 6 Xposition Yposition Zposition Zrotation Yrotation Xrotation
											JOINT RightHandPinky3
											{
												OFFSET 0.000000 0.000000 2.842758
												CHANNELS 6 Xposition Yposition Zposition Zrotation Yrotation Xrotation
												JOINT RightHandPinky4
												{
													OFFSET 0.000000 0.000000 2.639709
													CHANNELS 6 Xposition Yposition Zposition Zrotation Yrotation Xrotation
													End Site
													{
														OFFSET 0.000000 0.000000 0.100006
													}
												}
											}
										}
									}
									JOINT RightForeArmEnd
									{
										OFFSET 0.000000 0.000000 0.000000
										CHANNELS 6 Xposition Yposition Zposition Zrotation Yrotation Xrotation
										End Site
										{
											OFFSET 0.000000 0.000000 0.100006
										}
									}
								}
								JOINT RightArmEnd
								{
									OFFSET 0.000000 0.000000 0.000000
									CHANNELS 6 Xposition Yposition Zposition Zrotation Yrotation Xrotation
									End Site
									{
										OFFSET 0.000000 0.000000 0.100006
									}
								}
							}
						}
					}
					JOINT LeftShoulder
					{
						OFFSET 2.625397 0.000000 11.175217
						CHANNELS 6 Xposition Yposition Zposition Zrotation Yrotation Xrotation
						JOINT LeftArm
						{
							OFFSET 0.000000 0.000000 10.813629
							CHANNELS 6 Xposition Yposition Zposition Zrotation Yrotation Xrotation
							JOINT LeftForeArm
							{
								OFFSET 0.000000 0.000000 28.724777
								CHANNELS 6 Xposition Yposition Zposition Zrotation Yrotation Xrotation
								JOINT LeftHand
								{
									OFFSET 0.644379 0.328857 25.716171
									CHANNELS 6 Xposition Yposition Zposition Zrotation Yrotation Xrotation
									JOINT LeftHandThumb1
									{
										OFFSET 2.867310 -2.944275 3.959564
										CHANNELS 6 Xposition Yposition Zposition Zrotation Yrotation Xrotation
										JOINT LeftHandThumb2
										{
											OFFSET 0.000000 0.000000 3.350403
											CHANNELS 6 Xposition Yposition Zposition Zrotation Yrotation Xrotation
											JOINT LeftHandThumb3
											{
												OFFSET 0.000000 0.000000 3.756516
												CHANNELS 6 Xposition Yposition Zposition Zrotation Yrotation Xrotation
												JOINT LeftHandThumb4
												{
													OFFSET 0.000000 0.000000 3.100006
													CHANNELS 6 Xposition Yposition Zposition Zrotation Yrotation Xrotation
													End Site
													{
														OFFSET 0.000000 0.000000 0.100006
													}
												}
											}
										}
									}
									JOINT LeftHandIndex1
									{
										OFFSET 0.086761 -2.345276 10.030899
										CHANNELS 6 Xposition Yposition Zposition Zrotation Yrotation Xrotation
										JOINT LeftHandIndex2
										{
											OFFSET 0.000000 0.000000 4.061096
											CHANNELS 6 Xposition Yposition Zposition Zrotation Yrotation Xrotation
											JOINT LeftHandIndex3
											{
												OFFSET 0.000000 0.000000 3.248871
												CHANNELS 6 Xposition Yposition Zposition Zrotation Yrotation Xrotation
												JOINT LeftHandIndex4
												{
													OFFSET 0.000000 0.000000 2.639709
													CHANNELS 6 Xposition Yposition Zposition Zrotation Yrotation Xrotation
													End Site
													{
														OFFSET 0.000000 0.000000 0.100006
													}
												}
											}
										}
									}
									JOINT LeftHandMiddle1
									{
										OFFSET -0.104095 -0.006775 9.502945
										CHANNELS 6 Xposition Yposition Zposition Zrotation Yrotation Xrotation
										JOINT LeftHandMiddle2
										{
											OFFSET 0.000000 0.000000 4.568726
											CHANNELS 6 Xposition Yposition Zposition Zrotation Yrotation Xrotation
											JOINT LeftHandMiddle3
											{
												OFFSET 0.000000 0.000000 3.654984
												CHANNELS 6 Xposition Yposition Zposition Zrotation Yrotation Xrotation
												JOINT LeftHandMiddle4
												{
													OFFSET 0.000000 0.000000 2.741241
													CHANNELS 6 Xposition Yposition Zposition Zrotation Yrotation Xrotation
													End Site
													{
														OFFSET 0.000000 0.000000 0.100006
													}
												}
											}
										}
									}
									JOINT LeftHandRing1
									{
										OFFSET -0.086761 2.267456 8.921707
										CHANNELS 6 Xposition Yposition Zposition Zrotation Yrotation Xrotation
										JOINT LeftHandRing2
										{
											OFFSET 0.000000 0.000000 4.061096
											CHANNELS 6 Xposition Yposition Zposition Zrotation Yrotation Xrotation
											JOINT LeftHandRing3
											{
												OFFSET 0.000000 0.000000 3.654984
												CHANNELS 6 Xposition Yposition Zposition Zrotation Yrotation Xrotation
												JOINT LeftHandRing4
												{
													OFFSET 0.000000 0.000000 2.741241
													CHANNELS 6 Xposition Yposition Zposition Zrotation Yrotation Xrotation
													End Site
													{
														OFFSET 0.000000 0.000000 0.100006
													}
												}
											}
										}
									}
									JOINT LeftHandPinky1
									{
										OFFSET 0.173492 4.467224 7.976990
										CHANNELS 6 Xposition Yposition Zposition Zrotation Yrotation Xrotation
										JOINT LeftHandPinky2
										{
											OFFSET 0.000000 0.000000 3.350403
											CHANNELS 6 Xposition Yposition Zposition Zrotation Yrotation Xrotation
											JOINT LeftHandPinky3
											{
												OFFSET 0.000000 0.000000 2.842758
												CHANNELS 6 Xposition Yposition Zposition Zrotation Yrotation Xrotation
												JOINT LeftHandPinky4
												{
													OFFSET 0.000000 0.000000 2.639709
													CHANNELS 6 Xposition Yposition Zposition Zrotation Yrotation Xrotation
													End Site
													{
														OFFSET 0.000000 0.000000 0.100006
													}
												}
											}
										}
									}
									JOINT LeftForeArmEnd
									{
										OFFSET 0.000000 0.000000 0.000000
										CHANNELS 6 Xposition Yposition Zposition Zrotation Yrotation Xrotation
										End Site
										{
											OFFSET 0.000000 0.000000 0.100006
										}
									}
								}
								JOINT LeftArmEnd
								{
									OFFSET 0.000000 0.000000 0.000000
									CHANNELS 6 Xposition Yposition Zposition Zrotation Yrotation Xrotation
									End Site
									{
										OFFSET 0.000000 0.000000 0.100006
									}
								}
							}
						}
					}
				}
			}
		}
	}
	JOINT RightUpLeg
	{
		OFFSET -11.289948 0.000000 0.000000
		CHANNELS 6 Xposition Yposition Zposition Zrotation Yrotation Xrotation
		JOINT RightLeg
		{
			OFFSET 0.000000 0.000000 -38.200329
			CHANNELS 6 Xposition Yposition Zposition Zrotation Yrotation Xrotation
			JOINT RightFoot
			{
				OFFSET 0.000000 0.000000 -39.900856
				CHANNELS 6 Xposition Yposition Zposition Zrotation Yrotation Xrotation
				JOINT RightToeBase
				{
					OFFSET 0.000000 -15.261658 0.000001
					CHANNELS 6 Xposition Yposition Zposition Zrotation Yrotation Xrotation
					JOINT RightToeBaseEnd
					{
						OFFSET 0.000000 -7.370728 0.000000
						CHANNELS 6 Xposition Yposition Zposition Zrotation Yrotation Xrotation
						End Site
						{
							OFFSET 0.000000 0.000000 0.100000
						}
					}
				}
				JOINT RightLegEnd
				{
					OFFSET 0.000000 0.000000 0.000000
					CHANNELS 6 Xposition Yposition Zposition Zrotation Yrotation Xrotation
					End Site
					{
						OFFSET 0.000000 0.000000 0.100000
					}
				}
			}
			JOINT RightUpLegEnd
			{
				OFFSET 0.000000 0.000000 0.000000
				CHANNELS 6 Xposition Yposition Zposition Zrotation Yrotation Xrotation
				End Site
				{
					OFFSET 0.000000 0.000000 0.099998
				}
			}
		}
	}
	JOINT LeftUpLeg
	{
		OFFSET 11.315674 0.000000 0.000000
		CHANNELS 6 Xposition Yposition Zposition Zrotation Yrotation Xrotation
		JOINT LeftLeg
		{
			OFFSET 0.000000 0.000000 -38.200329
			CHANNELS 6 Xposition Yposition Zposition Zrotation Yrotation Xrotation
			JOINT LeftFoot
			{
				OFFSET 0.000000 0.000000 -39.900856
				CHANNELS 6 Xposition Yposition Zposition Zrotation Yrotation Xrotation
				JOINT LeftToeBase
				{
					OFFSET 0.000000 -15.261658 0.000001
					CHANNELS 6 Xposition Yposition Zposition Zrotation Yrotation Xrotation
					JOINT LeftToeBaseEnd
					{
						OFFSET 0.000000 -7.539978 0.000000
						CHANNELS 6 Xposition Yposition Zposition Zrotation Yrotation Xrotation
						End Site
						{
							OFFSET 0.000000 0.000000 0.100000
						}
					}
				}
				JOINT LeftLegEnd
				{
					OFFSET 0.000000 0.000000 0.000000
					CHANNELS 6 Xposition Yposition Zposition Zrotation Yrotation Xrotation
					End Site
					{
						OFFSET 0.000000 0.000000 0.100000
					}
				}
			}
			JOINT LeftUpLegEnd
			{
				OFFSET 0.000000 0.000000 0.000000
				CHANNELS 6 Xposition Yposition Zposition Zrotation Yrotation Xrotation
				End Site
				{
					OFFSET 0.000000 0.000000 0.099998
				}
			}
		}
	}
}
MOTION
Frames: 2
Frame Time: 0.016667
-23.582062 -3.412720 88.713272 -3.477317 1.184516 -10.132716 -0.000033 2.080049 8.814250 -0.289158 -0.368879 6.680675 0.000003 0.000024 8.844145 0.011635 1.154983 0.031998 -0.000007 -0.000017 11.682270 -2.722173 0.098451 7.355434 -0.000007 -0.000020 11.746702 -1.275852 0.119546 3.399718 0.000010 -0.000031 17.658274 2.143184 -3.961825 6.592467 -0.000001 0.000028 5.101526 3.199551 -0.227362 -2.704463 -0.000015 0.000014 5.101516 -1.015737 1.997813 -13.435306 0.000002 -0.000001 11.655062 0.000000 0.000000 -0.000000 -2.625397 -0.000018 11.175238 13.716119 -95.671307 0.358365 0.000008 -0.000019 10.434723 -59.392313 -30.734513 59.683860 -0.000005 0.000019 29.628431 10.650650 0.026356 25.454952 -0.000032 -0.000030 22.857618 7.196381 -7.643037 -2.004869 -2.867306 -2.944275 3.959473 31.586725 -17.619199 50.974525 0.000023 0.000015 3.350433 -13.456776 8.731347 -24.185193 0.000011 0.000023 3.756519 -8.945654 6.680241 -16.547344 -0.000005 0.000012 3.147344 -0.000001 0.000000 0.000001 -0.086761 -2.345287 10.030899 -11.859335 -15.767876 9.780712 0.000010 -0.000028 4.061098 0.320846 -11.993145 1.710702 0.000007 -0.000018 3.248892 -0.179189 -11.992989 1.710722 -0.000015 0.000002 2.639718 -0.000000 -0.000002 0.000001 0.104099 -0.006746 9.502930 -7.381808 -19.713569 4.494309 -0.000016 -0.000017 4.568748 0.397606 -14.169608 0.760132 0.000000 -0.000027 3.655015 -0.103374 -14.169642 0.760378 0.000031 -0.000019 2.741278 0.000003 0.000001 -0.000000 0.086760 2.267445 8.921690 -1.501584 -34.827753 2.779872 -0.000010 0.000020 4.061113 -0.652591 -24.518987 -1.598649 -0.000021 -0.000025 3.654996 0.346675 -24.519059 -1.598344 0.000002 0.000005 2.741252 -0.000000 -0.000000 -0.000001 -0.173504 4.467212 7.976967 8.290036 -49.954750 -4.325024 -0.000015 -0.000005 3.350403 0.373380 -34.415998 -7.653066 0.000010 0.000031 2.842766 2.373378 -34.415916 -7.653057 -0.000009 -0.000005 2.639707 0.000003 0.000001 -0.000000 -0.000017 -0.000012 -0.000042 0.000002 0.000001 0.000000 0.000014 0.000015 0.000025 -0.000002 0.000001 0.000001 2.625395 -0.000029 11.175229 -7.796679 92.672437 -0.286165 0.000023 0.000005 10.813652 51.876462 51.953967 46.288195 0.000007 -0.000062 28.724707 -2.657802 0.704270 36.685872 0.644335 0.328861 25.716198 -13.235003 -0.004844 -15.566332 2.867325 -2.944290 3.959595 -31.666956 16.919931 52.039833 0.000000 0.000008 3.350399 11.909785 -8.109625 -21.599522 -0.000019 0.000000 3.756519 7.939270 -6.118441 -14.796766 -0.000008 -0.000004 3.100010 -0.000000 0.000001 0.000000 0.086754 -2.345263 10.030899 -6.534994 12.005761 -1.161988 0.000008 -0.000027 4.061073 0.408928 8.478660 -1.200766 -0.000015 0.000020 3.248862 -0.090925 8.478684 -1.200747 -0.000013 0.000011 2.639720 -0.000002 -0.000000 0.000000 -0.104080 -0.006795 9.502935 -1.467073 11.785686 -0.356800 0.000007 -0.000077 4.568714 0.459691 8.367000 -0.439432 0.000012 0.000010 3.654970 -0.039244 8.367368 -0.440515 0.000008 -0.000002 2.741252 0.000001 -0.000000 -0.000001 -0.086769 2.267431 8.921715 7.261088 14.418442 1.683131 -0.000002 -0.000001 4.061103 -0.937831 10.294263 0.637348 -0.000006 -0.000024 3.654995 0.060681 10.294260 0.635143 0.000022 -0.000005 2.741237 0.000001 -0.000000 0.000000 0.173496 4.467222 7.976974 16.438404 15.714080 3.715691 -0.000025 -0.000063 3.350420 -1.781285 11.261161 2.218124 -0.000037 -0.000059 2.842733 0.218721 11.261150 2.218138 -0.000025 -0.000041 2.639714 -0.000003 0.000000 -0.000002 0.000001 0.000020 -0.000001 -0.000003 -0.000000 -0.000000 0.000008 0.000013 0.000016 -0.000001 0.000000 0.000000 -11.289955 0.000000 0.000011 -5.672249 0.037991 11.966028 -0.000001 0.000017 -38.200333 -0.800327 0.088054 6.159069 0.000006 -0.000021 -39.900875 -1.331891 1.481776 19.147445 0.000004 -15.261657 0.000004 1.174957 0.794190 -18.103116 -0.000001 -7.370728 0.000000 0.000000 0.000000 -0.000000 0.000011 -0.000001 0.000000 0.000000 -0.000000 0.000002 0.000004 -0.000002 -0.000000 0.000000 0.000000 0.000000 11.315697 -0.000015 0.000004 -1.276972 1.319826 9.792632 -0.000002 -0.000019 -38.200340 0.206807 -0.045744 10.991582 0.000009 -0.000023 -39.900867 10.484912 -3.002883 15.019407 -0.000013 -15.261708 -0.000000 -0.171307 -0.968818 -19.466007 -0.000036 -7.539917 0.000000 -0.000000 -0.000000 -0.000000 -0.000035 0.000061 0.000000 -0.000000 0.000000 0.000000 0.000003 -0.000001 -0.000007 0.000000 -0.000000 -0.000001 
-23.588440 -3.378418 88.712532 -3.387976 1.154695 -10.163101 -0.000032 2.080067 8.814247 -0.282013 -0.464942 6.650360 -0.000013 -0.000017 8.844137 0.011771 1.005403 0.014175 0.000010 -0.000016 11.682269 -2.408978 0.339783 7.463702 0.000002 -0.000004 11.746712 -1.156855 0.335233 3.443562 -0.000010 0.000012 17.658262 1.804779 -4.236057 6.592242 0.000012 0.000025 5.101533 2.941306 -0.216714 -2.722315 -0.000013 0.000033 5.101536 -1.017992 1.944503 -13.266409 0.000001 -0.000002 11.655043 0.000000 0.000000 0.000000 -2.625416 -0.000033 11.175189 13.791671 -95.600027 0.364290 0.000000 -0.000010 10.434753 -60.590697 -29.973705 59.918661 0.000008 0.000023 29.628437 11.121816 0.016712 26.297275 -0.000010 -0.000086 22.857622 7.038858 -7.460590 -1.933895 -2.867294 -2.944305 3.959579 31.586715 -17.619214 50.974562 0.000011 0.000015 3.350384 -13.456773 8.731341 -24.185225 0.000000 0.000008 3.756519 -8.945654 6.680256 -16.547354 -0.000003 -0.000005 3.147351 0.000002 -0.000000 -0.000003 -0.086754 -2.345259 10.030945 -11.908865 -15.965839 10.067109 -0.000010 0.000005 4.061087 0.315122 -12.160437 1.735453 -0.000007 -0.000010 3.248873 -0.184876 -12.160569 1.735437 -0.000009 0.000010 2.639730 -0.000002 -0.000002 -0.000000 0.104073 -0.006791 9.502972 -7.435181 -19.943114 4.737108 0.000003 0.000043 4.568727 0.397167 -14.342986 0.769362 -0.000014 -0.000020 3.654975 -0.103320 -14.343186 0.769481 0.000000 -0.000007 2.741271 -0.000000 0.000003 0.000002 0.086734 2.267449 8.921726 -1.560712 -35.146770 3.088772 0.000051 -0.000023 4.061098 -0.645744 -24.728693 -1.614334 0.000003 -0.000002 3.655018 0.353871 -24.728702 -1.614173 0.000021 -0.000010 2.741281 0.000001 0.000001 -0.000000 -0.173504 4.467202 7.976992 8.303201 -50.385161 -3.854150 0.000004 -0.000005 3.350426 0.408114 -34.628038 -7.714362 -0.000013 0.000021 2.842766 2.408110 -34.628065 -7.714365 0.000001 -0.000009 2.639729 0.000001 0.000002 -0.000001 -0.000010 0.000011 0.000006 -0.000002 -0.000000 0.000001 0.000002 0.000027 -0.000004 -0.000005 0.000002 0.000001 2.625400 0.000013 11.175216 -7.932140 92.630732 -0.308872 -0.000008 0.000009 10.813652 53.759278 50.442863 48.631319 0.000001 0.000011 28.724691 -3.721520 0.675502 36.990676 0.644350 0.328945 25.716206 -12.045759 -0.295649 -14.807089 2.867306 -2.944275 3.959587 -31.666973 16.919909 52.039761 0.000000 0.000031 3.350441 11.909757 -8.109664 -21.599391 0.000004 0.000015 3.756531 7.939262 -6.118367 -14.796797 0.000007 0.000000 3.100007 -0.000000 0.000001 -0.000001 0.086769 -2.345283 10.030890 -6.516082 12.194534 -0.786465 -0.000005 0.000021 4.061090 0.407024 8.570970 -1.214044 0.000008 0.000013 3.248872 -0.092829 8.570990 -1.214008 0.000014 0.000007 2.639725 -0.000001 -0.000003 0.000000 -0.104094 -0.006763 9.502934 -1.459738 11.838746 -0.192819 -0.000012 0.000004 4.568712 0.459260 8.397946 -0.444474 -0.000003 0.000012 3.654976 -0.039607 8.397677 -0.444138 0.000013 -0.000003 2.741249 0.000001 -0.000001 -0.000001 -0.086761 2.267433 8.921696 7.225862 14.251267 1.654075 0.000025 0.000004 4.061087 -0.938180 10.174278 0.629958 0.000011 -0.000022 3.654986 0.060236 10.174362 0.631994 -0.000002 0.000010 2.741243 -0.000002 0.000002 0.000001 0.173492 4.467209 7.976994 16.348116 15.372092 3.623842 -0.000019 -0.000134 3.350431 -1.790920 11.014601 2.168319 -0.000026 -0.000084 2.842747 0.209086 11.014595 2.168311 -0.000034 -0.000072 2.639712 0.000001 -0.000001 -0.000003 0.000003 0.000042 0.000007 0.000003 -0.000000 0.000001 0.000017 -0.000005 -0.000000 -0.000008 -0.000000 -0.000000 -11.289988 0.000050 -0.000003 -5.648112 0.050275 11.958833 0.000000 0.000025 -38.200317 -0.800914 0.088428 6.206864 -0.000002 0.000003 -39.900867 -1.449289 1.472458 19.100339 -0.000016 -15.261683 -0.000016 1.169968 0.800613 -18.102247 0.000025 -7.370726 0.000002 -0.000000 -0.000000 -0.000001 0.000001 0.000003 0.000000 -0.000000 -0.000000 -0.000001 -0.000001 -0.000000 -0.000002 0.000000 0.000000 0.000001 11.315688 -0.000013 -0.000011 -1.312091 1.346766 9.790255 0.000008 -0.000034 -38.200329 0.205140 -0.045588 10.985514 -0.000004 0.000009 -39.900845 10.427558 -3.034405 15.061194 -0.000001 -15.261745 0.000021 -0.163845 -0.957931 -19.544274 -0.000033 -7.539915 -0.000001 -0.000000 -0.000000 -0.000001 -0.000030 0.000062 -0.000002 -0.000000 0.000000 -0.000001 -0.000000 -0.000000 0.000000 -0.000000 0.000000 0.000001 
